<svg width="73" height="73" viewBox="0 0 73 73" fill="none" xmlns="http://www.w3.org/2000/svg">
<path d="M50.1875 27.375C50.1875 31.0051 48.7454 34.4866 46.1785 37.0535C43.6116 39.6204 40.1301 41.0625 36.5 41.0625C32.8698 41.0625 29.3884 39.6204 26.8215 37.0535C24.2546 34.4866 22.8125 31.0051 22.8125 27.375C22.8125 23.7448 24.2546 20.2634 26.8215 17.6965C29.3884 15.1296 32.8698 13.6875 36.5 13.6875C40.1301 13.6875 43.6116 15.1296 46.1785 17.6965C48.7454 20.2634 50.1875 23.7448 50.1875 27.375Z" fill="#2C2C2C"/>
<path fill-rule="evenodd" clip-rule="evenodd" d="M0 36.5C0 26.8196 3.84553 17.5357 10.6906 10.6906C17.5357 3.84553 26.8196 0 36.5 0C46.1804 0 55.4643 3.84553 62.3094 10.6906C69.1545 17.5357 73 26.8196 73 36.5C73 46.1804 69.1545 55.4643 62.3094 62.3094C55.4643 69.1545 46.1804 73 36.5 73C26.8196 73 17.5357 69.1545 10.6906 62.3094C3.84553 55.4643 0 46.1804 0 36.5ZM36.5 4.5625C30.4856 4.56282 24.5935 6.2614 19.502 9.46275C14.4104 12.6641 10.3262 17.2381 7.71959 22.6583C5.11295 28.0784 4.08976 34.1245 4.76781 40.1005C5.44585 46.0766 7.79755 51.7397 11.5522 56.4381C14.7916 51.2186 21.9228 45.625 36.5 45.625C51.0772 45.625 58.2038 51.2141 61.4478 56.4381C65.2024 51.7397 67.5542 46.0766 68.2322 40.1005C68.9102 34.1245 67.8871 28.0784 65.2804 22.6583C62.6738 17.2381 58.5896 12.6641 53.498 9.46275C48.4065 6.2614 42.5144 4.56282 36.5 4.5625Z" fill="#2C2C2C"/>
</svg>
